<svg width="113.828125" height="32.000000" viewBox="0 0 113.828 32" fill="none" xmlns="http://www.w3.org/2000/svg" xmlns:xlink="http://www.w3.org/1999/xlink">
	<desc>
			Created with Pixso.
	</desc>
	<defs/>
	<path id="Vector" d="M39.1758 32L44.7773 32L22.3984 0L14.2617 11.6322L10.0586 4.90381L7.15234 9.05493L19.1992 27.8945L8.50391 27.8489L11.543 23.4697L8.89062 19.3186L2.92578 27.826L2.90234 27.826L0 32L5.60156 32L5.62109 32L26.9961 32L16.8906 15.829L22.3984 7.91443L39.1758 32Z" fill="#242A56" fill-opacity="1.000000" fill-rule="evenodd"/>
	<path id="Digital Agency" d="M72.6367 14.2866C74.0469 14.2866 75.4688 13.8002 76.2852 13.1858L76.2852 8.96179L72.4453 8.96179L72.4453 10.9202L73.9961 10.9202L73.9961 11.765C73.5078 11.9827 73.1133 12.0594 72.6367 12.0594C71.2305 12.0594 70.4375 10.9458 70.4375 9.64026C70.4375 8.09143 71.4219 7.23389 72.5352 7.23389C73.4844 7.23389 74.1484 7.68188 74.5586 8.07861L76.2852 6.6322C75.3633 5.53137 73.8672 4.94263 72.5352 4.94263C69.5781 4.94263 67.8906 7.01624 67.8906 9.64026C67.8906 12.6354 70 14.2866 72.6367 14.2866ZM50.0508 14.1714L53.3672 14.1714C56.3125 14.1714 58.0391 12.3154 58.0391 9.64026C58.0391 6.95227 56.1953 5.08337 53.3281 5.08337L50.0508 5.08337L50.0508 14.1714ZM61.7109 14.1714L64.2227 14.1714L64.2227 5.08337L61.7109 5.08337L61.7109 14.1714ZM80.082 14.1714L82.5898 14.1714L82.5898 5.08337L80.082 5.08337L80.082 14.1714ZM88.3711 14.1714L90.8672 14.1714L90.8672 7.24658L93.1328 7.24658L93.1328 5.08337L86.1055 5.08337L86.1055 7.24658L88.3711 7.24658L88.3711 14.1714ZM94.9609 14.1714L97.5078 14.1714L97.9688 12.6995L100.887 12.6995L101.348 14.1714L103.883 14.1714L100.594 5.08337L98.2617 5.08337L94.9609 14.1714ZM107.098 14.1714L113.152 14.1714L113.152 12.0082L109.609 12.0082L109.609 5.08337L107.098 5.08337L107.098 14.1714ZM52.4062 12.0082L52.4062 7.24658L53.3789 7.24658C54.5703 7.24658 55.4922 8.28345 55.4922 9.64026C55.4922 10.9458 54.582 12.0082 53.1992 12.0082L52.4062 12.0082ZM98.5938 10.6642L99.4141 8.04028L99.4414 8.04028L100.258 10.6642L98.5938 10.6642ZM65.418 27.0867C66.8242 27.0867 68.2461 26.6002 69.0625 25.9858L69.0625 21.7618L65.2227 21.7618L65.2227 23.7202L66.7734 23.7202L66.7734 24.5651C66.2852 24.7826 65.8906 24.8594 65.418 24.8594C64.0078 24.8594 63.2148 23.7458 63.2148 22.4402C63.2148 20.8915 64.1992 20.0338 65.3125 20.0338C66.2617 20.0338 66.9258 20.4818 67.3359 20.8787L69.0625 19.4323C68.1406 18.3314 66.6445 17.7427 65.3125 17.7427C62.3555 17.7427 60.668 19.8163 60.668 22.4402C60.668 25.4354 62.7773 27.0867 65.418 27.0867ZM99.0352 27.0994C100.645 27.0994 101.953 26.3314 102.734 25.3715L100.953 23.8354C100.469 24.4242 99.7891 24.7571 99.0352 24.7571C97.6641 24.7571 96.8438 23.6819 96.8438 22.4402C96.8438 20.9042 97.9062 20.0851 99.0352 20.0851C99.8789 20.0851 100.57 20.597 100.953 21.0322L102.734 19.509C101.707 18.2675 100.273 17.7427 99.0352 17.7427C96 17.7427 94.2852 19.829 94.2852 22.4402C94.2852 25.4739 96.3438 27.0994 99.0352 27.0994ZM49.3477 26.9714L51.8945 26.9714L52.3555 25.4994L55.2734 25.4994L55.7344 26.9714L58.2695 26.9714L54.9805 17.8834L52.6484 17.8834L49.3477 26.9714ZM72.7969 26.9714L79.1055 26.9714L79.1055 24.8082L75.1523 24.8082L75.1523 23.4899L78.0312 23.4899L78.0312 21.4163L75.1523 21.4163L75.1523 20.0466L78.8398 20.0466L78.8398 17.8834L72.7969 17.8834L72.7969 26.9714ZM82.7188 26.9714L85.1016 26.9714L85.1016 21.9922L85.125 21.9922L88.2734 26.9714L90.668 26.9714L90.668 17.8834L88.2734 17.8834L88.2734 23.0162L88.25 23.0291L85.0352 17.8834L82.7188 17.8834L82.7188 26.9714ZM108.352 26.9714L110.836 26.9714L110.836 23.0419L113.781 17.8834L110.965 17.8834L109.621 20.6482L109.594 20.6482L108.211 17.8834L105.422 17.8834L108.352 23.0419L108.352 26.9714ZM52.9844 23.4642L53.8008 20.8402L53.8281 20.8402L54.6484 23.4642L52.9844 23.4642Z" fill="#242A56" fill-opacity="1.000000" fill-rule="evenodd"/>
</svg>
