<svg width="170.742920" height="48.000000" viewBox="0 0 170.743 48" fill="none" xmlns="http://www.w3.org/2000/svg" xmlns:xlink="http://www.w3.org/1999/xlink">
	<desc>
			Created with Pixso.
	</desc>
	<defs/>
	<path id="Vector" d="M58.7656 48L67.1658 48L33.6001 0L21.3943 17.4484L15.0857 7.35571L10.7314 13.5823L28.8 41.8418L12.7544 41.7733L17.3142 35.2046L13.3372 28.9779L4.38867 41.7391L4.35425 41.7391L0 48L8.3999 48L8.43433 48L40.4915 48L25.3372 23.7434L33.6001 11.8717L58.7656 48Z" fill="#FFFFFF" fill-opacity="1.000000" fill-rule="evenodd"/>
	<path id="Digital Agency" d="M108.955 21.4299C111.067 21.4299 113.198 20.7003 114.427 19.7787L114.427 13.4427L108.667 13.4427L108.667 16.3804L110.99 16.3804L110.99 17.6476C110.261 17.974 109.666 18.0891 108.955 18.0891C106.843 18.0891 105.653 16.4187 105.653 14.4603C105.653 12.1371 107.131 10.8507 108.802 10.8507C110.222 10.8507 111.221 11.5227 111.835 12.1179L114.427 9.94836C113.045 8.29712 110.798 7.41394 108.802 7.41394C104.366 7.41394 101.832 10.5243 101.832 14.4603C101.832 18.9531 105 21.4299 108.955 21.4299ZM75.0747 21.2571L80.0476 21.2571C84.4636 21.2571 87.0557 18.4731 87.0557 14.4603C87.0557 10.4283 84.2908 7.62512 79.99 7.62512L75.0747 7.62512L75.0747 21.2571ZM92.5667 21.2571L96.3298 21.2571L96.3298 7.62512L92.5667 7.62512L92.5667 21.2571ZM120.122 21.2571L123.885 21.2571L123.885 7.62512L120.122 7.62512L120.122 21.2571ZM132.555 21.2571L136.299 21.2571L136.299 10.87L139.697 10.87L139.697 7.62512L129.156 7.62512L129.156 10.87L132.555 10.87L132.555 21.2571ZM142.438 21.2571L146.258 21.2571L146.949 19.0492L151.327 19.0492L152.018 21.2571L155.82 21.2571L150.885 7.62512L147.391 7.62512L142.438 21.2571ZM160.646 21.2571L169.728 21.2571L169.728 18.0123L164.409 18.0123L164.409 7.62512L160.646 7.62512L160.646 21.2571ZM78.6077 18.0123L78.6077 10.87L80.0669 10.87C81.8523 10.87 83.2349 12.4252 83.2349 14.4603C83.2349 16.4187 81.8716 18.0123 79.7981 18.0123L78.6077 18.0123ZM147.89 15.9963L149.119 12.0603L149.157 12.0603L150.386 15.9963L147.89 15.9963ZM98.1213 40.6299C100.233 40.6299 102.365 39.9004 103.594 38.9788L103.594 32.6427L97.8335 32.6427L97.8335 35.5803L100.156 35.5803L100.156 36.8475C99.427 37.174 98.8318 37.2892 98.1213 37.2892C96.0093 37.2892 94.8191 35.6188 94.8191 33.6604C94.8191 31.3372 96.2974 30.0508 97.9678 30.0508C99.3887 30.0508 100.387 30.7228 101.001 31.318L103.594 29.1483C102.211 27.4972 99.9646 26.6139 97.9678 26.6139C93.5327 26.6139 90.9983 29.7244 90.9983 33.6604C90.9983 38.1532 94.1663 40.6299 98.1213 40.6299ZM148.548 40.6492C150.967 40.6492 152.925 39.4972 154.096 38.0571L151.428 35.7532C150.698 36.6364 149.68 37.1355 148.548 37.1355C146.493 37.1355 145.264 35.5227 145.264 33.6604C145.264 31.3563 146.858 30.1276 148.548 30.1276C149.815 30.1276 150.852 30.8955 151.428 31.5483L154.096 29.2635C152.561 27.4011 150.41 26.6139 148.548 26.6139C143.997 26.6139 141.425 29.7435 141.425 33.6604C141.425 38.2107 144.516 40.6492 148.548 40.6492ZM74.0188 40.4572L77.8396 40.4572L78.5308 38.2491L82.9084 38.2491L83.5996 40.4572L87.4011 40.4572L82.4668 26.8252L78.9724 26.8252L74.0188 40.4572ZM109.192 40.4572L118.657 40.4572L118.657 37.2123L112.725 37.2123L112.725 35.2347L117.045 35.2347L117.045 32.1244L112.725 32.1244L112.725 30.0699L118.254 30.0699L118.254 26.8252L109.192 26.8252L109.192 40.4572ZM124.076 40.4572L127.647 40.4572L127.647 32.9883L127.686 32.9883L132.409 40.4572L135.999 40.4572L135.999 26.8252L132.409 26.8252L132.409 34.5243L132.37 34.5436L127.551 26.8252L124.076 26.8252L124.076 40.4572ZM162.526 40.4572L166.251 40.4572L166.251 34.5627L170.667 26.8252L166.443 26.8252L164.427 30.9723L164.389 30.9723L162.315 26.8252L158.129 26.8252L162.526 34.5627L162.526 40.4572ZM79.4717 35.1963L80.7004 31.2604L80.7388 31.2604L81.9675 35.1963L79.4717 35.1963Z" fill="#FFFFFF" fill-opacity="1.000000" fill-rule="evenodd"/>
</svg>
