<svg width="238.000000" height="67.000000" viewBox="0 0 238 67" fill="none" xmlns="http://www.w3.org/2000/svg" xmlns:xlink="http://www.w3.org/1999/xlink">
	<desc>
			Created with Pixso.
	</desc>
	<defs/>
	<path id="Vector" d="M81.9141 67L93.6228 67L46.8354 0L29.8218 24.355L21.0281 10.2671L14.9587 18.9585L40.1445 58.4043L17.7783 58.3086L24.1345 49.1396L18.5908 40.4482L6.11719 58.2607L6.06958 58.2607L0 67L11.7087 67L11.7566 67L56.4414 67L35.3176 33.1416L46.8354 16.5708L81.9141 67Z" fill="#242A56" fill-opacity="1.000000" fill-rule="evenodd"/>
	<path id="Digital Agency" d="M151.873 29.9126C154.817 29.9126 157.788 28.894 159.501 27.6079L159.501 18.7637L151.472 18.7637L151.472 22.8643L154.71 22.8643L154.71 24.6328C153.693 25.0889 152.864 25.2495 151.873 25.2495C148.929 25.2495 147.27 22.918 147.27 20.1841C147.27 16.9414 149.331 15.146 151.659 15.146C153.64 15.146 155.031 16.084 155.888 16.9146L159.501 13.8862C157.574 11.5815 154.443 10.3486 151.659 10.3486C145.477 10.3486 141.944 14.6904 141.944 20.1841C141.944 26.4556 146.36 29.9126 151.873 29.9126ZM104.647 29.6714L111.579 29.6714C117.734 29.6714 121.347 25.7856 121.347 20.1841C121.347 14.5562 117.493 10.6436 111.499 10.6436L104.647 10.6436L104.647 29.6714ZM129.029 29.6714L134.275 29.6714L134.275 10.6436L129.029 10.6436L129.029 29.6714ZM167.438 29.6714L172.684 29.6714L172.684 10.6436L167.438 10.6436L167.438 29.6714ZM184.769 29.6714L189.988 29.6714L189.988 15.1729L194.725 15.1729L194.725 10.6436L180.032 10.6436L180.032 15.1729L184.769 15.1729L184.769 29.6714ZM198.545 29.6714L203.871 29.6714L204.834 26.5894L210.936 26.5894L211.9 29.6714L217.199 29.6714L210.321 10.6436L205.45 10.6436L198.545 29.6714ZM223.926 29.6714L236.585 29.6714L236.585 25.1421L229.171 25.1421L229.171 10.6436L223.926 10.6436L223.926 29.6714ZM109.572 25.1421L109.572 15.1729L111.606 15.1729C114.095 15.1729 116.021 17.3433 116.021 20.1841C116.021 22.918 114.121 25.1421 111.231 25.1421L109.572 25.1421ZM206.146 22.3281L207.858 16.8345L207.912 16.8345L209.625 22.3281L206.146 22.3281ZM136.772 56.7124C139.716 56.7124 142.687 55.6943 144.4 54.4077L144.4 45.564L136.371 45.564L136.371 49.6641L139.609 49.6641L139.609 51.4331C138.592 51.8887 137.762 52.0493 136.772 52.0493C133.828 52.0493 132.169 49.7178 132.169 46.9844C132.169 43.7412 134.23 41.9458 136.558 41.9458C138.539 41.9458 139.93 42.8838 140.787 43.7148L144.4 40.686C142.473 38.3813 139.341 37.1484 136.558 37.1484C130.376 37.1484 126.843 41.4902 126.843 46.9844C126.843 53.2554 131.259 56.7124 136.772 56.7124ZM207.062 56.7393C210.434 56.7393 213.164 55.1313 214.796 53.1216L211.076 49.9053C210.059 51.1382 208.641 51.835 207.062 51.835C204.198 51.835 202.485 49.584 202.485 46.9844C202.485 43.7681 204.707 42.0532 207.062 42.0532C208.828 42.0532 210.273 43.125 211.076 44.0361L214.796 40.8472C212.655 38.2476 209.658 37.1484 207.062 37.1484C200.719 37.1484 197.133 41.5171 197.133 46.9844C197.133 53.3359 201.441 56.7393 207.062 56.7393ZM103.175 56.4712L108.501 56.4712L109.465 53.3896L115.567 53.3896L116.53 56.4712L121.829 56.4712L114.951 37.4434L110.08 37.4434L103.175 56.4712ZM152.203 56.4712L165.397 56.4712L165.397 51.9424L157.128 51.9424L157.128 49.1816L163.149 49.1816L163.149 44.8403L157.128 44.8403L157.128 41.9727L164.835 41.9727L164.835 37.4434L152.203 37.4434L152.203 56.4712ZM172.95 56.4712L177.928 56.4712L177.928 46.0464L177.982 46.0464L184.566 56.4712L189.57 56.4712L189.57 37.4434L184.566 37.4434L184.566 48.1904L184.512 48.2168L177.795 37.4434L172.95 37.4434L172.95 56.4712ZM226.547 56.4712L231.739 56.4712L231.739 48.2437L237.894 37.4434L232.006 37.4434L229.196 43.2324L229.143 43.2324L226.252 37.4434L220.418 37.4434L226.547 48.2437L226.547 56.4712ZM110.776 49.1284L112.489 43.6343L112.542 43.6343L114.255 49.1284L110.776 49.1284Z" fill="#242A56" fill-opacity="1.000000" fill-rule="evenodd"/>
</svg>
