<svg width="57.066406" height="58.000000" viewBox="0 0 57.0664 58" fill="none" xmlns="http://www.w3.org/2000/svg" xmlns:xlink="http://www.w3.org/1999/xlink">
	<desc>
			Created with Pixso.
	</desc>
	<defs>
		<clipPath id="clip1142_3395">
			<rect id="icons / fb" width="57.064514" height="58.000000" fill="white" fill-opacity="0"/>
		</clipPath>
		<linearGradient id="paint_linear_26_4628_0" x1="8.829561" y1="18.732904" x2="61.818039" y2="41.151108" gradientUnits="userSpaceOnUse">
			<stop stop-color="#FFFFFF"/>
			<stop offset="1.000000" stop-color="#FFFFFF" stop-opacity="0.000000"/>
		</linearGradient>
	</defs>
	<rect id="icons / fb" width="57.064514" height="58.000000" fill="#FFFFFF" fill-opacity="0"/>
	<g clip-path="url(#clip1142_3395)">
		<path id="Vector" d="M57.0664 29C57.0664 12.982 44.293 0 28.5312 0C12.7734 0 0 12.982 0 29C0 43.4773 10.4336 55.4738 24.0742 57.6488L24.0742 37.3828L16.8281 37.3828L16.8281 29L24.0742 29L24.0742 22.6109C24.0742 15.3439 28.332 11.3281 34.8516 11.3281C37.9727 11.3281 41.2383 11.8945 41.2383 11.8945L41.2383 19.0312L37.6367 19.0312C34.0938 19.0312 32.9922 21.2686 32.9922 23.5625L32.9922 29L40.9023 29L39.6367 37.3828L32.9922 37.3828L32.9922 57.6488C46.6328 55.4738 57.0664 43.4773 57.0664 29Z" fill="#1877F2" fill-opacity="1.000000" fill-rule="nonzero"/>
		<path id="Vector" d="M39.6367 37.3828L32.9922 37.3828L32.9922 57.6488C33.3242 57.5954 33.6602 57.536 33.9922 57.4708C47.1406 54.8826 57.0664 43.1215 57.0664 29C57.0664 12.982 44.293 0 28.5312 0C12.7734 0 0 12.982 0 29C0 43.1215 9.92578 54.8826 23.0742 57.4708C23.4062 57.536 23.7383 57.5954 24.0742 57.6488L24.0742 37.3828L16.8281 37.3828L16.8281 29L24.0742 29L24.0742 22.6109C24.0742 15.3439 28.332 11.3281 34.8516 11.3281C37.9727 11.3281 41.2383 11.8945 41.2383 11.8945L41.2383 19.0312L37.6367 19.0312C34.0938 19.0312 32.9922 21.2686 32.9922 23.5625L32.9922 29L40.9023 29L40.7539 30L39.6367 37.3828ZM33.9922 28L42.0664 28L40.5 38.3828L33.9922 38.3828L33.9922 56.4535Q37.9883 55.6536 41.4258 53.8094Q45.8711 51.4238 49.3828 47.2906Q52.6016 43.4988 54.2695 39.1168Q56.0664 34.4003 56.0664 29Q56.0664 23.0255 53.9258 17.9531Q51.9102 13.1734 47.9961 9.19461Q43.8516 4.98334 38.8281 2.93628Q34.0742 1 28.5312 1Q22.9922 1 18.2383 2.93628Q13.2109 4.98334 9.07031 9.19461Q5.15625 13.1734 3.14062 17.953Q1 23.0255 1 29Q1 34.4007 2.79688 39.1173Q4.46484 43.4991 7.68359 47.2906Q11.1914 51.424 15.6406 53.8096Q19.0781 55.6537 23.0742 56.4535L23.0742 38.3828L15.8281 38.3828L15.8281 28L23.0742 28L23.0742 22.6109Q23.0742 17.6086 25.4922 14.4734Q25.8711 13.9859 26.3047 13.5435Q26.9883 12.8497 27.7734 12.3056Q30.6289 10.3281 34.8516 10.3281Q38.0586 10.3281 41.4102 10.9092L42.2383 11.053L42.2383 20.0312L37.6367 20.0312Q35.7539 20.0312 34.8438 20.9722Q33.9922 21.8541 33.9922 23.5625L33.9922 28Z" fill="url(#paint_linear_26_4628_0)" fill-opacity="0.700000" fill-rule="evenodd"/>
		<path id="Vector" d="M39.6367 37.3828L40.9023 29L32.9883 29L32.9883 23.5625C32.9883 21.2686 34.0938 19.0312 37.6367 19.0312L41.2383 19.0312L41.2383 11.8945C41.2383 11.8945 37.9727 11.3281 34.8516 11.3281C28.332 11.3281 24.0742 15.3439 24.0742 22.6109L24.0742 29L16.8281 29L16.8281 37.3828L24.0742 37.3828L24.0742 57.6488C25.5273 57.881 27.0156 58 28.5312 58C30.0469 58 31.5352 57.881 32.9883 57.6488L32.9883 37.3828L39.6367 37.3828Z" fill="#FFFFFF" fill-opacity="1.000000" fill-rule="nonzero"/>
	</g>
</svg>
