<svg width="90.992188" height="93.232910" viewBox="0 0 90.9922 93.2329" fill="none" xmlns="http://www.w3.org/2000/svg" xmlns:xlink="http://www.w3.org/1999/xlink">
	<desc>
			Created with Pixso.
	</desc>
	<defs>
		<filter id="filter_1142_3366_dd" x="0.000000" y="0.000000" width="90.992188" height="93.232910" filterUnits="userSpaceOnUse" color-interpolation-filters="sRGB">
			<feFlood flood-opacity="0" result="BackgroundImageFix"/>
			<feBlend mode="normal" in="SourceGraphic" in2="BackgroundImageFix" result="shape"/>
			<feGaussianBlur stdDeviation="3.33333" result="effect_layerBlur_1"/>
		</filter>
		<filter id="filter_1142_3367_dd" x="11.906250" y="13.671143" width="60.984375" height="62.277588" filterUnits="userSpaceOnUse" color-interpolation-filters="sRGB">
			<feFlood flood-opacity="0" result="BackgroundImageFix"/>
			<feBlend mode="normal" in="SourceGraphic" in2="BackgroundImageFix" result="shape"/>
			<feGaussianBlur stdDeviation="3.33333" result="effect_layerBlur_1"/>
		</filter>
		<filter id="filter_1142_3374_dd" x="2.898438" y="10.003418" width="74.988281" height="69.433624" filterUnits="userSpaceOnUse" color-interpolation-filters="sRGB">
			<feFlood flood-opacity="0" result="BackgroundImageFix"/>
			<feGaussianBlur in="BackgroundImage" stdDeviation="0.666667"/>
			<feComposite in2="SourceAlpha" operator="in" result="effect_backgroundBlur_1"/>
			<feColorMatrix in="SourceAlpha" type="matrix" values="0 0 0 0 0 0 0 0 0 0 0 0 0 0 0 0 0 0 127 0" result="hardAlpha"/>
			<feOffset dx="2.47778" dy="2.47778"/>
			<feGaussianBlur stdDeviation="1.65186"/>
			<feComposite in2="hardAlpha" operator="out" k2="-1" k3="1"/>
			<feColorMatrix type="matrix" values="0 0 0 0 0.15294 0 0 0 0 0.52157 0 0 0 0 0.90196 0 0 0 0.5 0"/>
			<feBlend mode="normal" in2="effect_backgroundBlur_1" result="effect_dropShadow_2"/>
			<feBlend mode="normal" in="SourceGraphic" in2="effect_dropShadow_2" result="shape"/>
		</filter>
		<linearGradient id="paint_linear_1142_3374_0" x1="12.773256" y1="32.616455" x2="67.066254" y2="41.672928" gradientUnits="userSpaceOnUse">
			<stop stop-color="#FFFFFF"/>
			<stop offset="1.000000" stop-color="#FFFFFF" stop-opacity="0.400000"/>
		</linearGradient>
	</defs>
	<g filter="url(#filter_1142_3366_dd)">
		<path id="Vector" d="M78.8359 47.0488C77.7188 45.3685 76.1875 44.1224 74.4492 43.0795C74.4102 43.0618 74.4023 43.0338 74.3633 43.0161C67.2617 36.9684 60.0859 30.9792 52.9375 24.9799C48.2305 21.0005 43.4609 17.1076 38.8203 13.042C32.668 7.6922 23.1328 9.64474 19.6016 16.9699C18.7109 18.7803 18.3789 20.7352 18.3477 22.7382C18.332 22.8702 18.2812 22.9845 18.2656 23.1165C16.2031 34.7444 14.1719 46.3621 12.1367 57.9797C11.6406 60.7852 11.1719 63.5804 10.6641 66.3579C10.6055 66.5381 10.5625 66.6803 10.6211 66.8479L10.6055 66.886C10.4805 67.5004 10.3086 68.0691 10.2109 68.6733C10.1953 68.7114 10.1875 68.7774 10.1953 68.8053C10.207 68.8333 10.1875 68.8713 10.1875 68.8713C9.81641 71.0623 9.98828 73.1821 10.7578 75.2103C10.8086 75.3499 10.8594 75.4895 10.9375 75.619C10.9492 75.6469 10.9492 75.6469 10.957 75.6748C11.4297 76.7993 12.0586 77.8349 12.8008 78.736C12.8477 78.7816 12.8672 78.8375 12.918 78.8832C12.9648 78.9289 13.0117 78.9745 13.0352 79.0304C16.1172 82.5557 20.918 84.0978 25.582 82.7484C26.1211 82.5833 26.625 82.4003 27.1172 82.1895C36.5195 78.8305 45.9102 75.3497 55.2812 71.907C60.8359 69.8846 66.3359 67.7885 71.9219 65.8499C72.5195 65.6644 73.1328 65.4408 73.7266 65.1613C80.6484 62.1053 83.2109 53.4247 78.8359 47.0488Z" fill="#29293D" fill-opacity="0.500000" fill-rule="evenodd"/>
	</g>
	<g filter="url(#filter_1142_3367_dd)">
		<path id="Vector" d="M61.6445 45.0595C61 44.0894 60.1172 43.3701 59.1133 42.768C59.0742 42.7506 59.0469 42.7179 59.0156 42.6911C54.9297 39.2135 50.8047 35.7692 46.6914 32.3191C43.9766 30.0218 41.2227 27.7744 38.543 25.4273C34.9922 22.3388 29.4883 23.466 27.4492 27.6949C26.9336 28.74 26.7422 29.8686 26.7266 31.025C26.7148 31.1012 26.6875 31.1671 26.6758 31.2433C25.4883 37.9561 24.3125 44.6631 23.1406 51.37C22.8555 52.9752 22.5898 54.5746 22.2969 56.1641C22.293 56.1924 22.2852 56.2204 22.2773 56.2479C22.25 56.3271 22.2383 56.3954 22.2617 56.4717C22.2617 56.4832 22.2617 56.4957 22.2578 56.5067C22.2578 56.5099 22.2539 56.5134 22.2539 56.5169C22.1875 56.8434 22.0977 57.1477 22.043 57.4665C22.0312 57.5174 22.0039 57.571 22.0195 57.6196C22.0273 57.6441 22.0117 57.6708 22.0078 57.6964C21.8008 58.9476 21.9023 60.1583 22.3438 61.3172C22.3672 61.3872 22.3945 61.4573 22.4297 61.5234C22.4414 61.5435 22.4531 61.564 22.4609 61.5854C22.7305 62.2346 23.0977 62.8325 23.5234 63.3526C23.5508 63.379 23.5625 63.4112 23.5898 63.4376C23.6406 63.4873 23.6836 63.5508 23.7305 63.6045C25.5117 65.5815 28.2461 66.4375 30.9023 65.669C31.2148 65.5736 31.5039 65.468 31.7891 65.3463C37.2148 63.4072 42.6367 61.3977 48.0469 59.4102C51.2539 58.2427 54.4297 57.0326 57.6523 55.9134C58 55.8063 58.3516 55.6772 58.6953 55.5159C62.6914 53.7516 64.1719 48.7403 61.6445 45.0595Z" fill="#29293D" fill-opacity="1.000000" fill-rule="evenodd"/>
	</g>
	<path id="Vector" d="M27.6602 20.3659C28.2773 18.7421 29.1289 17.2471 30.3906 16.0357C35.4414 11.1126 43.793 12.3498 47.2227 18.5359C49.8008 23.227 52.5312 27.815 55.1875 32.4545C59.6211 40.1613 64.1055 47.8681 68.4883 55.6007C72.1719 62.0703 68.1758 70.2411 60.8555 71.3494C56.3711 72.0196 52.1719 69.9576 49.8516 65.9366C45.957 59.1577 42.0391 52.3788 38.1484 45.6257C38.0703 45.471 37.9688 45.3422 37.8672 45.2133C37.4531 44.8782 37.2734 44.3885 37.0156 43.9503C35.2891 40.9088 33.5078 37.8931 31.7812 34.8774C30.6758 32.9185 29.5156 30.9853 28.4062 29.0264C27.4023 27.2737 26.9375 25.3663 26.9883 23.3559C27.0664 22.3248 27.1953 21.2938 27.6602 20.3659Z" fill="#3C8BD9" fill-opacity="1.000000" fill-rule="nonzero"/>
	<path id="Vector" d="M27.6602 20.366C27.4258 21.2939 27.2227 22.2218 27.168 23.2012C27.0938 25.3664 27.6328 27.3768 28.7148 29.2584C31.5508 34.13 34.3867 39.0273 37.1953 43.9246C37.4531 44.3628 37.6602 44.8009 37.918 45.2133C36.3711 47.894 34.8242 50.5488 33.2539 53.2294C31.0859 56.9669 28.9219 60.73 26.7305 64.4675C26.6289 64.4675 26.6016 64.4159 26.5781 64.3386C26.5508 64.1324 26.6289 63.952 26.6797 63.7458C27.7383 59.8795 26.8594 56.4514 24.207 53.513C22.582 51.7345 20.5195 50.7292 18.1484 50.3942C15.0547 49.956 12.3242 50.755 9.875 52.6882C9.4375 53.0233 9.15234 53.513 8.63672 53.7707C8.53516 53.7707 8.48438 53.7192 8.45703 53.6418C9.69531 51.5025 10.9062 49.3632 12.1445 47.2238C17.2461 38.3571 22.3516 29.4904 27.4805 20.6495C27.5312 20.5464 27.6094 20.4691 27.6602 20.366Z" fill="#FABC04" fill-opacity="1.000000" fill-rule="nonzero"/>
	<path id="Vector" d="M8.55859 53.7192C9.04688 53.281 9.51172 52.8171 10.0273 52.4047C16.293 47.4558 25.6992 51.0386 27.0664 58.8743C27.4023 60.7559 27.2188 62.5601 26.6523 64.3644C26.6289 64.519 26.6016 64.6479 26.5508 64.8026C26.3164 65.215 26.1133 65.6531 25.8555 66.0656C23.5586 69.8545 20.1836 71.7361 15.75 71.4526C10.6719 71.0917 6.67578 67.277 5.98047 62.225C5.64453 59.7764 6.13672 57.4824 7.39844 55.3688C7.65625 54.9049 7.96484 54.4925 8.25 54.0285C8.37891 53.9254 8.32812 53.7192 8.55859 53.7192Z" fill="#34A852" fill-opacity="1.000000" fill-rule="nonzero"/>
	<path id="Vector" d="M8.55859 53.7192C8.45312 53.8223 8.45312 54.0027 8.27344 54.0285C8.24609 53.8481 8.35156 53.745 8.45312 53.6161L8.55859 53.7192Z" fill="#FABC04" fill-opacity="1.000000" fill-rule="nonzero"/>
	<path id="Vector" d="M26.5508 64.8024C26.4492 64.622 26.5508 64.4931 26.6523 64.3643C26.6797 64.39 26.7305 64.4416 26.7578 64.4673L26.5508 64.8024Z" fill="#E1C025" fill-opacity="1.000000" fill-rule="nonzero"/>
	<g filter="url(#filter_1142_3374_dd)"/>
	<path id="Vector" d="M55.1875 32.4518C52.5312 27.8123 49.8008 23.2243 47.2227 18.5332C43.793 12.3471 35.4414 11.1099 30.3906 16.033C29.1289 17.2444 28.2773 18.7394 27.6602 20.3633C27.6055 20.4663 27.5312 20.5437 27.4766 20.6468C22.3477 29.4877 17.2461 38.3544 12.1406 47.2211C10.5664 49.9476 8.91406 52.6386 7.39844 55.3661C6.13672 57.4796 5.64453 59.7736 5.98047 62.2223C6.67578 67.2742 10.6719 71.089 15.75 71.4498C20.1836 71.7334 23.5586 69.8517 25.8555 66.0628C28.4492 61.9102 30.7812 57.4882 33.25 53.2267C34.8242 50.5461 37.8906 45.2364 37.8906 45.2364C37.8906 45.2364 46.0273 59.2751 49.8516 65.9339C52.1719 69.9549 56.3711 72.0169 60.8555 71.3467C68.1758 70.2384 72.1719 62.0676 68.4883 55.598C64.1055 47.8654 59.6211 40.1587 55.1875 32.4518Z" stroke="url(#paint_linear_1142_3374_0)" stroke-opacity="0.700000" stroke-width="1.000000" stroke-linejoin="round"/>
</svg>
