<svg width="57.066406" height="58.000000" viewBox="0 0 57.0664 58" fill="none" xmlns="http://www.w3.org/2000/svg" xmlns:xlink="http://www.w3.org/1999/xlink">
	<desc>
			Created with Pixso.
	</desc>
	<defs>
		<clipPath id="clip1142_3396">
			<rect id="icons / inst" width="57.064514" height="58.000000" fill="white" fill-opacity="0"/>
		</clipPath>
		<radialGradient id="paint_radial_26_5620_0" cx="0.000000" cy="0.000000" r="1.000000" gradientUnits="userSpaceOnUse" gradientTransform="translate(15.1432 62.3873) rotate(-90) scale(57.4106 52.5495)">
			<stop stop-color="#FFDD55"/>
			<stop offset="0.100000" stop-color="#FFDD55"/>
			<stop offset="0.500000" stop-color="#FF543E"/>
			<stop offset="1.000000" stop-color="#C837AB"/>
		</radialGradient>
		<radialGradient id="paint_radial_26_5621_0" cx="0.000000" cy="0.000000" r="1.000000" gradientUnits="userSpaceOnUse" gradientTransform="translate(-9.56998 4.17914) rotate(78.8556) scale(25.6471 104.04)">
			<stop stop-color="#3771C8"/>
			<stop offset="0.128000" stop-color="#3771C8"/>
			<stop offset="1.000000" stop-color="#6600FF" stop-opacity="0.000000"/>
		</radialGradient>
		<linearGradient id="paint_linear_26_5621_1" x1="12.116432" y1="18.104639" x2="47.272247" y2="49.184425" gradientUnits="userSpaceOnUse">
			<stop stop-color="#FFFFFF"/>
			<stop offset="1.000000" stop-color="#FFFFFF" stop-opacity="0.000000"/>
		</linearGradient>
	</defs>
	<rect id="icons / inst" width="57.064514" height="58.000000" fill="#FFFFFF" fill-opacity="0"/>
	<g clip-path="url(#clip1142_3396)">
		<path id="Vector" d="M57.0547 28.9959C57.0547 45.0099 44.2852 57.9919 28.5273 57.9919C12.7734 57.9919 0 45.0099 0 28.9959C0 12.9819 12.7734 0 28.5273 0C44.2852 0 57.0547 12.9819 57.0547 28.9959Z" fill="#34E0A1" fill-opacity="1.000000" fill-rule="evenodd"/>
		<path id="Vector" d="M28.5312 0C16.5859 0 13.1953 0 12.4844 0C9.98438 0.362488 8.55859 0.725006 6.77734 1.45001C5.52734 2.17499 4.63672 2.89999 3.56641 3.98749C1.78516 5.79999 0.714844 8.15625 0.179688 11.0562C0 12.325 0 12.6875 0 19.575C0 21.9312 0 24.8312 0 29C0 41.1437 0 44.5875 0 45.3125C0.179688 47.6688 0.535156 49.3 1.42578 50.9312C2.85156 54.1938 5.88672 56.55 9.27344 57.4562C10.5195 57.8188 11.7695 58 13.375 58C14.0859 58 21.2227 58 28.5312 58C35.6641 58 42.9766 58 43.6914 58C45.6523 57.8188 46.7227 57.8188 47.9688 57.4562C49.5742 57.0938 51.1797 56.1875 52.6055 55.1C54.0312 54.0125 55.1016 52.5625 55.8164 50.9312C56.5312 49.3 57.0664 47.6688 57.2422 45.4937C57.2422 44.95 57.2422 36.975 57.2422 29C57.2422 21.025 57.2422 13.05 57.2422 12.6875C57.0664 10.3312 56.707 8.88126 55.8164 7.06876C55.1016 5.79999 54.3906 4.71249 53.3203 3.625C51.3594 1.8125 49.0391 0.725006 46.3633 0.362488C44.9375 0 44.582 0 37.8047 0L28.5312 0Z" fill="url(#paint_radial_26_5620_0)" fill-opacity="1.000000" fill-rule="nonzero"/>
		<path id="Vector" d="M28.5312 0C16.5859 0 13.1953 0 12.4844 0C9.98438 0.362488 8.55859 0.725006 6.77734 1.45001C5.52734 2.17499 4.63672 2.89999 3.56641 3.98749C1.78516 5.79999 0.714844 8.15625 0.179688 11.0562C0 12.325 0 12.6875 0 19.575C0 21.9312 0 24.8312 0 29C0 41.1437 0 44.5875 0 45.3125C0.179688 47.6688 0.535156 49.3 1.42578 50.9312C2.85156 54.1938 5.88672 56.55 9.27344 57.4562C10.5195 57.8188 11.7695 58 13.375 58C14.0859 58 21.2227 58 28.5312 58C35.6641 58 42.9766 58 43.6914 58C45.6523 57.8188 46.7227 57.8188 47.9688 57.4562C49.5742 57.0938 51.1797 56.1875 52.6055 55.1C54.0312 54.0125 55.1016 52.5625 55.8164 50.9312C56.5312 49.3 57.0664 47.6688 57.2422 45.4937C57.2422 44.95 57.2422 36.975 57.2422 29C57.2422 21.025 57.2422 13.05 57.2422 12.6875C57.0664 10.3312 56.707 8.88126 55.8164 7.06876C55.1016 5.79999 54.3906 4.71249 53.3203 3.625C51.3594 1.8125 49.0391 0.725006 46.3633 0.362488C44.9375 0 44.582 0 37.8047 0L28.5312 0Z" fill="url(#paint_radial_26_5621_0)" fill-opacity="1.000000" fill-rule="nonzero"/>
		<path id="Vector" d="M46.3633 0.362488C44.9375 0 44.582 0 37.8047 0L12.4844 0C9.98438 0.362488 8.55859 0.725006 6.77734 1.45001C5.52734 2.17499 4.63672 2.89999 3.56641 3.98749C1.78516 5.79999 0.714844 8.15625 0.179688 11.0562C0 12.325 0 12.6875 0 19.575L0 45.3125C0.179688 47.6688 0.535156 49.3 1.42578 50.9312C2.85156 54.1938 5.88672 56.55 9.27344 57.4562C10.5195 57.8188 11.7695 58 13.375 58L43.6914 58C45.6523 57.8188 46.7227 57.8188 47.9688 57.4562C49.5742 57.0938 51.1797 56.1875 52.6055 55.1C54.0312 54.0125 55.1016 52.5625 55.8164 50.9312C56.5312 49.3 57.0664 47.6688 57.2422 45.4937L57.2422 12.6875C57.0664 10.3312 56.707 8.88126 55.8164 7.06876C55.1016 5.79999 54.3906 4.71249 53.3203 3.625Q51.9336 2.34552 50.3125 1.54776Q48.4883 0.65036 46.3633 0.362488ZM52.625 4.34323Q51.3633 3.18195 49.8867 2.45355Q48.1992 1.62012 46.2305 1.35345L46.1758 1.34576L46.1172 1.3317Q44.8125 1 37.8047 1L12.5547 1Q9.4375 1.45892 7.21875 2.34998Q5.70312 3.24258 4.28125 4.68884Q1.93359 7.07117 1.16406 11.2154Q1 12.4535 1 19.575L1 45.2743Q1.25 48.5254 2.30469 50.4516L2.32422 50.4903L2.34375 50.5306Q3.14844 52.3705 4.46875 53.6948Q6.42969 55.6608 9.53125 56.4902Q11.2891 57 13.375 57L43.6445 57Q44.1172 56.9568 44.8945 56.8958Q46.8438 56.7422 47.6914 56.4959L47.7188 56.4875L47.75 56.4808Q49.7344 56.0328 52 54.3047Q52.3398 54.0471 52.6484 53.7596Q54.0586 52.453 54.8984 50.5306Q56.0312 47.9436 56.2422 45.4521L56.2422 12.7257Q56.0117 9.74521 54.9297 7.53458Q53.8203 5.56659 52.625 4.34323Z" fill="url(#paint_linear_26_5621_1)" fill-opacity="0.700000" fill-rule="evenodd"/>
		<path id="Vector" d="M28.5352 7.61255C22.8281 7.61255 22.1133 7.61255 19.7969 7.79379C17.6562 7.79379 16.0508 8.15631 14.8047 8.70004C13.3789 9.2438 12.1289 9.96881 11.0586 11.2375C9.80859 12.325 9.09766 13.5938 8.5625 15.0438C8.02734 16.3126 7.67188 17.9438 7.67188 20.1188C7.49219 22.475 7.49219 23.2 7.49219 29.0001C7.49219 34.8 7.49219 35.5251 7.67188 37.8813C7.84766 40.2375 8.20703 41.6876 8.5625 43.1375C9.09766 44.5876 9.80859 45.675 11.0586 46.9438C12.3086 48.2126 13.3789 48.9376 14.8047 49.4813C16.2305 50.0251 17.6562 50.3875 19.9766 50.3875C22.293 50.5688 23.0078 50.5688 28.7148 50.5688C34.418 50.5688 35.1328 50.5688 37.4492 50.3875C39.7695 50.2063 41.1953 49.8438 42.6211 49.4813C44.0508 48.9376 45.1172 48.2126 46.3672 46.9438C47.6172 45.675 48.3281 44.5876 48.8633 43.1375C49.3984 41.6876 49.7539 40.2375 49.7539 37.8813C49.9336 35.5251 49.9336 34.8 49.9336 29.0001C49.9336 23.2 49.9336 22.475 49.7539 20.1188C49.5781 17.7625 49.2188 16.3126 48.8633 14.8625C48.3281 13.4125 47.6172 12.325 46.3672 11.0563C45.1172 9.78754 44.0508 9.06256 42.6211 8.5188C41.1953 7.97504 39.7695 7.61255 37.4492 7.61255C34.9531 7.61255 34.2422 7.61255 28.5352 7.61255ZM26.5742 11.4188C27.1094 11.4188 27.8203 11.4188 28.5352 11.4188C34.2422 11.4188 34.7773 11.4188 37.0938 11.6C39.2344 11.7813 40.3047 11.9626 41.0195 12.325C42.0859 12.6876 42.6211 13.2313 43.5156 13.9563C44.0508 14.6813 44.5859 15.4063 44.9414 16.3126C45.2969 17.0375 45.6523 18.1251 45.6523 20.3C45.832 22.475 45.832 23.2 45.832 29.0001C45.832 34.6188 45.832 35.3438 45.6523 37.7C45.4766 39.8751 45.2969 40.9626 44.9414 41.6876C44.5859 42.7751 44.0508 43.3188 43.3359 44.2251C42.6211 44.95 41.9102 45.4938 40.8398 45.8563C40.125 46.2188 39.0547 46.5813 36.918 46.5813C34.7773 46.7625 34.0625 46.7625 28.3555 46.7625C22.6484 46.7625 22.1133 46.7625 19.7969 46.5813C17.6562 46.4001 16.5859 46.2188 15.875 45.8563C14.8047 45.4938 14.2695 44.95 13.3789 44.2251C12.6641 43.5001 12.1289 42.7751 11.7734 41.6876C11.4141 40.9626 11.0586 39.8751 11.0586 37.7C10.8789 35.5251 10.8789 34.8 10.8789 29.0001C10.8789 23.2 10.8789 22.6563 11.0586 20.3C11.4141 18.3063 11.7734 17.0375 12.1289 16.3126C12.4844 15.4063 13.0195 14.6813 13.7344 13.9563C14.4453 13.05 15.1602 12.6876 16.0508 12.325C16.7656 11.9626 17.8359 11.6 19.9766 11.6C21.9375 11.4188 22.6484 11.4188 26.5742 11.4188ZM39.7695 15.0438C39.2344 15.0438 38.6992 15.225 38.3438 15.4063C37.9844 15.7688 37.6289 16.1313 37.4492 16.4938C37.2734 17.0375 37.2734 17.4001 37.2734 17.9438C37.4492 18.4875 37.6289 18.85 37.9844 19.2126C38.3438 19.575 38.8789 19.7563 39.2344 19.9376C39.5898 20.1188 40.3047 19.9376 40.6602 19.7563C41.1953 19.575 41.5508 19.2126 41.7305 18.85C42.0859 18.4875 42.0859 17.9438 42.0859 17.4001C42.2656 16.1313 41.1953 15.0438 39.7695 15.0438ZM28.5352 17.9438C22.6484 17.9438 17.6562 22.8376 17.6562 29.0001C17.6562 35.1626 22.4727 39.8751 28.5352 39.8751C34.5977 39.8751 39.2344 34.9813 39.2344 29.0001C39.2344 23.0188 34.418 17.9438 28.5352 17.9438ZM28.5352 21.7501C32.457 21.7501 35.4883 25.0125 35.4883 28.8188C35.4883 32.8063 32.2812 35.8875 28.5352 35.8875C24.6133 35.8875 21.5781 32.6251 21.5781 28.8188C21.4023 25.0125 24.6133 21.7501 28.5352 21.7501Z" fill="#FFFFFF" fill-opacity="1.000000" fill-rule="nonzero"/>
	</g>
</svg>
