<svg width="60.000000" height="60.000000" viewBox="0 0 60 60" fill="none" xmlns="http://www.w3.org/2000/svg" xmlns:xlink="http://www.w3.org/1999/xlink">
	<desc>
			Created with Pixso.
	</desc>
	<defs/>
	<path id="Vector 4" d="M6 56L54 56" stroke="#376FFF" stroke-opacity="1.000000" stroke-width="3.000000" stroke-linecap="round"/>
	<path id="Vector" d="M22.6934 9L25.875 13.2727C26.0566 13.5454 26.1475 13.8181 26.0566 14.1819L24.9658 18.4546L24.0566 21.1819L25.875 23.9092C26.2393 24.3635 26.0566 25.0908 25.6025 25.3635L23.0566 27L23.6934 28.8181L27.3301 29.7273C27.5117 29.8181 27.6934 29.9092 27.7842 30L30.9658 33.1819C31.3301 33.5454 31.4209 34.0908 31.0566 34.5454L28.9658 37.7273C28.875 37.8181 28.7842 37.9092 28.6934 38L24.6934 41L22.6934 46" stroke="#8B9BAB" stroke-opacity="1.000000" stroke-width="3.000000"/>
	<path id="Vector" d="M45.9658 15.9998L41.1475 16.9998C41.0566 16.9998 40.9658 16.9998 40.9658 16.9998C40.7842 16.9998 40.6025 16.9998 40.5117 16.9089L38.4209 15.8181C38.0566 15.6362 37.875 15.2727 37.875 14.9089L37.875 9.63623" stroke="#8B9BAB" stroke-opacity="1.000000" stroke-width="3.000000"/>
	<path id="Vector" d="M43.6934 42.2725L38.9658 35.7268C38.875 35.5452 38.7842 35.3633 38.7842 35.0906L38.7842 31.9087C38.7842 31.8179 38.7842 31.7268 38.7842 31.636L39.7842 27.5452L39.7842 25.5452C39.7842 25.0906 40.0566 24.7268 40.5117 24.5452L43.3301 23.636L45.2383 20.7268C45.3301 20.5452 45.6025 20.3633 45.7842 20.2725L48.5117 19.3633" stroke="#8B9BAB" stroke-opacity="1.000000" stroke-width="3.000000"/>
	<circle id="Ellipse 17" cx="30.000000" cy="27.000000" r="19.500000" stroke="#8B9BAB" stroke-opacity="1.000000" stroke-width="3.000000"/>
</svg>
