<svg width="60.000000" height="60.000000" viewBox="0 0 60 60" fill="none" xmlns="http://www.w3.org/2000/svg" xmlns:xlink="http://www.w3.org/1999/xlink">
	<desc>
			Created with Pixso.
	</desc>
	<defs/>
	<path id="Vector 4" d="M6 56L54 56" stroke="#8B9BAB" stroke-opacity="1.000000" stroke-width="3.000000" stroke-linecap="round"/>
	<path id="Vector" d="M18.9004 25.1001C18.9004 23.5 17.7998 22 16.2998 21.5C14.9004 21 13.1006 21.5 12.2002 22.7002C11.2002 23.9001 11 25.7002 11.7998 27.1001C12.6006 28.5 14.2002 29.2002 15.7998 28.9001C17.6006 28.6001 18.9004 26.9001 18.9004 25.1001Z" stroke="#8B9BAB" stroke-opacity="1.000000" stroke-width="3.000000" stroke-linejoin="round"/>
	<path id="Vector" d="M16.7002 29.7002C15.2998 29.7002 13.9004 29.7002 12.4004 29.7002C11.4004 29.7002 10.5 30.1001 9.90039 31.0002C9.5 31.6001 9.5 32.2002 9.5 32.9001C9.5 34.4001 9.5 35.9001 9.5 37.4001C9.5 37.9001 9.5 38.4001 9.5 38.9001C9.59961 39.7002 10 40.5002 10.7002 40.9001C11 41.1001 11.2998 41.2002 11.5 41.2002C11.5 42.1001 11.5 43.0002 11.5 43.9001C11.5 44.6001 11.5 45.3003 11.5 46.0002C11.5 46.7002 11.5996 47.5002 12.0996 48.0002C12.7998 48.7002 13.7002 48.6001 14.5996 48.6001C15 48.6001 15.4004 48.6001 15.7998 48.6001C16.0996 48.6001 16.4004 48.6001 16.7002 48.5002C17.7998 48.2002 18.2998 47.3003 18.2998 46.3003C18.2998 45.7002 18.2998 45.1001 18.2998 44.5002C18.2998 43.4001 18.2998 42.3003 18.2998 41.2002C18.5 41.2002 18.7002 41.1001 18.9004 41.0002C19.4004 40.7002 19.9004 40.3003 20.2002 39.7002C20.5 39.1001 20.5 38.6001 20.5 38.0002C20.5 36.6001 20.5 35.1001 20.5 33.7002C20.5 33.3003 20.5 32.9001 20.5 32.4001C20.5 32.3003 20.5 32.3003 20.5 32.2002C20.4004 30.8003 19.2998 29.8003 17.9004 29.7002C17.5 29.7002 17.0996 29.7002 16.7002 29.7002Z" stroke="#8B9BAB" stroke-opacity="1.000000" stroke-width="3.000000" stroke-linejoin="round"/>
	<path id="Vector" d="M49.8008 25.1001C49.8008 23.5 48.7002 22 47.2002 21.5C45.8008 21 44.001 21.5 43.1006 22.7002C42.1006 23.9001 41.9004 25.7002 42.7002 27.1001C43.501 28.5 45.1006 29.2002 46.7002 28.9001C48.501 28.6001 49.8008 26.9001 49.8008 25.1001Z" stroke="#8B9BAB" stroke-opacity="1.000000" stroke-width="3.000000" stroke-linejoin="round"/>
	<path id="Vector" d="M47.6006 29.7002C46.2002 29.7002 44.8008 29.7002 43.3008 29.7002C42.3008 29.7002 41.4004 30.1001 40.8008 31.0002C40.4004 31.6001 40.4004 32.2002 40.4004 32.9001C40.4004 34.4001 40.4004 35.9001 40.4004 37.4001C40.4004 37.9001 40.4004 38.4001 40.4004 38.9001C40.5 39.7002 40.9004 40.5002 41.6006 40.9001C41.9004 41.1001 42.2002 41.2002 42.4004 41.2002C42.4004 42.1001 42.4004 43.0002 42.4004 43.9001C42.4004 44.6001 42.4004 45.3003 42.4004 46.0002C42.4004 46.7002 42.5 47.5002 43 48.0002C43.7002 48.7002 44.6006 48.6001 45.5 48.6001C45.9004 48.6001 46.3008 48.6001 46.7002 48.6001C47 48.6001 47.3008 48.6001 47.6006 48.5002C48.7002 48.2002 49.2002 47.3003 49.2002 46.3003C49.2002 45.7002 49.2002 45.1001 49.2002 44.5002C49.2002 43.4001 49.2002 42.3003 49.2002 41.2002C49.4004 41.2002 49.6006 41.1001 49.8008 41.0002C50.3008 40.7002 50.8008 40.3003 51.1006 39.7002C51.4004 39.1001 51.4004 38.6001 51.4004 38.0002C51.4004 36.6001 51.4004 35.1001 51.4004 33.7002C51.4004 33.3003 51.4004 32.9001 51.4004 32.4001C51.4004 32.3003 51.4004 32.3003 51.4004 32.2002C51.3008 30.8003 50.2002 29.8003 48.8008 29.7002C48.4004 29.7002 48 29.7002 47.6006 29.7002Z" stroke="#8B9BAB" stroke-opacity="1.000000" stroke-width="3.000000" stroke-linejoin="round"/>
	<path id="Vector" d="M34.2998 25.1001C34.2998 23.5 33.1992 22 31.6992 21.5C30.2998 21 28.5 21.5 27.5996 22.7002C26.5996 23.9001 26.3994 25.7002 27.1992 27.1001C28 28.5 29.6992 29.2002 31.1992 28.9001C33 28.6001 34.2998 26.9001 34.2998 25.1001Z" stroke="#376FFF" stroke-opacity="1.000000" stroke-width="3.000000" stroke-linejoin="round"/>
	<path id="Vector" d="M32.0996 29.7002C30.7002 29.7002 29.2998 29.7002 27.7998 29.7002C26.7998 29.7002 25.9004 30.1001 25.2998 31.0002C25 31.6001 25 32.3003 25 32.9001C25 34.4001 25 35.9001 25 37.4001C25 37.9001 25 38.4001 25 38.9001C25.0996 39.7002 25.5 40.5002 26.2002 40.9001C26.5 41.1001 26.7998 41.2002 27 41.2002C27 42.1001 27 43.0002 27 43.9001C27 44.6001 27 45.3003 27 46.0002C27 46.7002 27.0996 47.5002 27.5996 48.0002C28.2998 48.7002 29.2002 48.6001 30.0996 48.6001C30.5 48.6001 30.9004 48.6001 31.2998 48.6001C31.5996 48.6001 31.9004 48.6001 32.2002 48.5002C33.2998 48.2002 33.7998 47.3003 33.7998 46.3003C33.7998 45.7002 33.7998 45.1001 33.7998 44.5002C33.7998 43.4001 33.7998 42.3003 33.7998 41.2002C34 41.2002 34.2002 41.1001 34.4004 41.0002C34.9004 40.7002 35.4004 40.3003 35.7002 39.7002C36 39.2002 36 38.6001 36 38.0002C36 36.6001 36 35.1001 36 33.7002C36 33.3003 36 32.9001 36 32.4001C36 32.3003 36 32.3003 36 32.2002C35.9004 30.8003 34.7998 29.8003 33.2998 29.7002C32.9004 29.7002 32.5 29.7002 32.0996 29.7002Z" stroke="#376FFF" stroke-opacity="1.000000" stroke-width="3.000000" stroke-linejoin="round"/>
	<path id="Vector" d="M26.6992 17.0999C26.6992 14.9998 25 13.2998 22.8994 13.2998C20.7998 13.2998 19.0996 14.9998 19.0996 17.0999" stroke="#8B9BAB" stroke-opacity="1.000000" stroke-width="3.000000" stroke-linejoin="round" stroke-linecap="round"/>
	<path id="Vector" d="M42.0996 17.0999C42.0996 14.9998 40.4004 13.2998 38.2998 13.2998C36.2002 13.2998 34.5 14.9998 34.5 17.0999" stroke="#8B9BAB" stroke-opacity="1.000000" stroke-width="3.000000" stroke-linejoin="round" stroke-linecap="round"/>
	<path id="Vector" d="M34.3994 9.30005C34.3994 7.19995 32.7002 5.5 30.5996 5.5C28.5 5.5 26.7998 7.19995 26.7998 9.30005" stroke="#8B9BAB" stroke-opacity="1.000000" stroke-width="3.000000" stroke-linejoin="round" stroke-linecap="round"/>
</svg>
