<svg width="24.000000" height="24.000000" viewBox="0 0 24 24" fill="none" xmlns="http://www.w3.org/2000/svg" xmlns:xlink="http://www.w3.org/1999/xlink">
	<desc>
			Created with Pixso.
	</desc>
	<defs/>
	<rect width="24.000000" height="24.000000" fill="#FFFFFF" fill-opacity="0"/>
	<path d="M10.9688 18.769C15.4951 18.1069 19.001 14.4341 19.001 9.9375C19.001 9.28076 18.9258 8.64111 18.7842 8.02637C20.7188 9.17822 22.001 11.1885 22.001 13.4751C22.001 14.7671 21.5918 15.9702 20.8867 16.9805C20.9463 17.9302 21.2842 18.7627 21.8984 19.4785L21.8984 19.4785C22.0527 19.6587 22.0322 19.9302 21.8525 20.085C21.7646 20.1597 21.6514 20.1968 21.5371 20.1875C20.1709 20.0771 19.0527 19.7622 18.1836 19.2437C17.2285 19.6953 16.1465 19.9502 15.001 19.9502C13.499 19.9502 12.1084 19.5132 10.9688 18.769Z" fill="#376FFF" fill-opacity="1.000000" fill-rule="nonzero"/>
	<path d="M7.625 16.6562C8.22461 16.7993 8.85254 16.875 9.5 16.875C13.6426 16.875 17 13.769 17 9.9375C17 6.10596 13.6426 3 9.5 3C5.35742 3 2 6.10596 2 9.9375C2 11.8838 2.86621 13.6431 4.26172 14.9028C4.13965 15.7617 3.79102 16.5254 3.2168 17.1938C3.05176 17.3867 3.07324 17.6772 3.2666 17.8428C3.35938 17.9229 3.48047 17.9619 3.60254 17.9521C5.30371 17.8149 6.64453 17.3833 7.625 16.6562Z" fill="#376FFF" fill-opacity="1.000000" fill-rule="nonzero"/>
</svg>
