<svg width="60.000000" height="60.000000" viewBox="0 0 60 60" fill="none" xmlns="http://www.w3.org/2000/svg" xmlns:xlink="http://www.w3.org/1999/xlink">
	<desc>
			Created with Pixso.
	</desc>
	<defs>
		<clipPath id="clip715_5968">
			<rect id="icon" width="60.000000" height="60.000000" fill="white" fill-opacity="0"/>
		</clipPath>
	</defs>
	<g clip-path="url(#clip715_5968)">
		<path id="Rectangle 1766" d="M12.5 18.1162C19.2891 14.1968 23.7529 11.6191 30.0215 8C31.9346 6.89551 34.3809 7.55103 35.4854 9.46411C37.2275 12.4812 38.7588 15.134 40.2617 17.7363" stroke="#376FFF" stroke-opacity="1.000000" stroke-width="3.000000" stroke-linejoin="round" stroke-linecap="round"/>
		<path id="Subtract" d="M48.1113 17.1436L48.1113 17.1436Q49.084 17.5461 49.8887 18.3516Q50.6943 19.157 51.0977 20.1294Q51.5 21.1016 51.5 22.2407L51.5 32.2407L48.5 32.2407L48.5 22.2407Q48.5 20.9907 47.875 20.3657Q47.25 19.7407 46 19.7407L9 19.7407Q7.75 19.7407 7.125 20.3657Q6.5 20.9907 6.5 22.2407L6.5 48.2407Q6.5 49.4907 7.125 50.1157Q7.75 50.7407 9 50.7407L46 50.7407Q47.25 50.7407 47.875 50.1157Q48.5 49.4907 48.5 48.2407L48.5 42.2407L51.5 42.2407L51.5 48.2407Q51.5 49.3799 51.0977 50.3521Q50.6943 51.3245 49.8887 52.1299Q49.084 52.9353 48.1113 53.3379Q47.1387 53.7407 46 53.7407L9 53.7407Q7.86133 53.7407 6.88867 53.3379Q5.91602 52.9353 5.11133 52.1299Q4.30566 51.3245 3.90234 50.3521Q3.5 49.3799 3.5 48.2407L3.5 22.2407Q3.5 21.1016 3.90234 20.1294Q4.30566 19.157 5.11133 18.3516Q5.91602 17.5461 6.88867 17.1436Q7.86133 16.7407 9 16.7407L46 16.7407Q47.1387 16.7407 48.1113 17.1436Z" clip-rule="evenodd" fill="#8B9BAB" fill-opacity="1.000000" fill-rule="evenodd"/>
		<rect id="Rectangle 1767" x="43.000000" y="32.240723" rx="2.000000" width="12.000000" height="10.000000" stroke="#8B9BAB" stroke-opacity="1.000000" stroke-width="3.000000" stroke-linejoin="round"/>
		<circle id="Ellipse 18" cx="49.000000" cy="37.240723" r="2.000000" fill="#8B9BAB" fill-opacity="1.000000"/>
		<path id="Vector 21" d="M28 29L28 41.5" stroke="#376FFF" stroke-opacity="1.000000" stroke-width="3.000000" stroke-linecap="round"/>
		<path id="Rectangle 1769" d="M21.9395 32.9392L26.9395 27.9395Q26.9916 27.8874 27.0485 27.8406Q27.1055 27.7939 27.1667 27.7529Q27.228 27.712 27.293 27.6773Q27.358 27.6425 27.426 27.6143Q27.4941 27.5862 27.5646 27.5648Q27.6351 27.5434 27.7074 27.529Q27.7797 27.5147 27.853 27.5074Q27.9263 27.5002 28 27.5002Q28.0737 27.5002 28.147 27.5075Q28.2203 27.5147 28.2926 27.5291Q28.3649 27.5435 28.4354 27.5649Q28.5059 27.5863 28.574 27.6145Q28.642 27.6427 28.707 27.6774Q28.772 27.7122 28.8333 27.7531Q28.8945 27.7941 28.9515 27.8408Q29.0084 27.8876 29.0605 27.9397L34.0605 32.9395L31.9385 35.0605L26.9395 30.0608L28 29.0002L29.0605 30.061L24.0605 35.0608L21.9395 32.9392ZM34.0322 32.9395L34.0605 32.9395C34.6543 33.5334 34.6543 34.4668 34.0605 35.0608C33.4658 35.6545 32.5332 35.6545 31.9385 35.0605L31.9385 35.0322L34.0322 32.9395ZM24.0605 35.0325L24.0605 35.0608C23.4668 35.6545 22.5332 35.6545 21.9395 35.0605C21.3457 34.4666 21.3457 33.5332 21.9395 32.9392L21.9678 32.9392L24.0605 35.0325Z" fill="#376FFF" fill-opacity="1.000000" fill-rule="evenodd"/>
	</g>
</svg>
