<svg width="60.000000" height="60.000000" viewBox="0 0 60 60" fill="none" xmlns="http://www.w3.org/2000/svg" xmlns:xlink="http://www.w3.org/1999/xlink">
	<desc>
			Created with Pixso.
	</desc>
	<defs/>
	<path id="Vector 22" d="M10 10L10 50" stroke="#8B9BAB" stroke-opacity="1.000000" stroke-width="3.000000" stroke-linecap="round"/>
	<path id="Vector 24" d="M20 46L20 50" stroke="#8B9BAB" stroke-opacity="1.000000" stroke-width="3.000000" stroke-linecap="round"/>
	<path id="Vector 25" d="M30 46L30 50" stroke="#8B9BAB" stroke-opacity="1.000000" stroke-width="3.000000" stroke-linecap="round"/>
	<path id="Vector 26" d="M40 46L40 50" stroke="#8B9BAB" stroke-opacity="1.000000" stroke-width="3.000000" stroke-linecap="round"/>
	<path id="Vector 23" d="M10 50L50 50" stroke="#8B9BAB" stroke-opacity="1.000000" stroke-width="3.000000" stroke-linecap="round"/>
	<path id="Vector 28" d="M10 40L14 40" stroke="#8B9BAB" stroke-opacity="1.000000" stroke-width="3.000000" stroke-linecap="round"/>
	<path id="Vector 27" d="M10 30L14 30" stroke="#8B9BAB" stroke-opacity="1.000000" stroke-width="3.000000" stroke-linecap="round"/>
	<path id="Vector 29" d="M10 20L14 20" stroke="#8B9BAB" stroke-opacity="1.000000" stroke-width="3.000000" stroke-linecap="round"/>
	<path id="Vector 30" d="M21 34L32 23L37 28L50 15" stroke="#376FFF" stroke-opacity="1.000000" stroke-width="3.000000" stroke-linejoin="round" stroke-linecap="round"/>
	<path id="Rectangle 1770" d="M41 13.5L50 13.5Q50.0737 13.5 50.147 13.5072Q50.2204 13.5144 50.2926 13.5288Q50.3649 13.5432 50.4354 13.5646Q50.5059 13.586 50.574 13.6142Q50.6421 13.6424 50.7071 13.6771Q50.7721 13.7119 50.8333 13.7528Q50.8946 13.7937 50.9516 13.8405Q51.0086 13.8872 51.0607 13.9393Q51.1128 13.9914 51.1595 14.0484Q51.2063 14.1054 51.2472 14.1666Q51.2881 14.2279 51.3229 14.2929Q51.3576 14.3579 51.3858 14.426Q51.414 14.4941 51.4354 14.5646Q51.4568 14.6351 51.4712 14.7074Q51.4856 14.7796 51.4928 14.853Q51.5 14.9263 51.5 15L51.5 24L48.5 24L48.5 15L50 15L50 16.5L41 16.5L41 13.5ZM41.0195 16.48L41 16.5C40.1602 16.5 39.5 15.8401 39.5 15C39.5 14.1599 40.1602 13.5 41 13.5L41.0195 13.52L41.0195 16.48ZM51.4805 23.98L51.5 24C51.5 24.8401 50.8398 25.5 50 25.5C49.1602 25.5 48.5 24.8401 48.5 24L48.5195 23.98L51.4805 23.98Z" fill="#376FFF" fill-opacity="1.000000" fill-rule="evenodd"/>
</svg>
